<svg xmlns="http://www.w3.org/2000/svg" viewBox="0 0 1117.42 1117.42"><defs><style>.cls-1{fill:#090a0a;}</style></defs><title>balck</title><g id="white"><path class="cls-1" d="M508.45,850.14V528.22H384.34A26.23,26.23,0,0,1,358.11,502V453.81a26.22,26.22,0,0,1,26.23-26.22H508.45c-.08-12.78-.15-31.82,0-55,.28-43.51.93-42.66,0-47-11.4-52.9-87-77.23-93.54-79.26a169.69,169.69,0,0,0-60.84-7H120.4a51.19,51.19,0,0,0-51,51.05V802.51a51.19,51.19,0,0,0,51,51H508.7A25.73,25.73,0,0,1,508.45,850.14Z"/><path class="cls-1" d="M997.06,239.32H763.4a170.9,170.9,0,0,0-60.85,7c-3.55,1.09-86,27.45-96.51,83.22-.56,3-.17,2.06,0,43.82.1,23,.05,41.81,0,54.2H733.13a26.22,26.22,0,0,1,26.22,26.22V502a26.22,26.22,0,0,1-26.22,26.23H606V850.14a27.53,27.53,0,0,1-.24,3.42H997.06a51.19,51.19,0,0,0,51-51V290.37A51.19,51.19,0,0,0,997.06,239.32Z"/></g></svg>