<svg xmlns="http://www.w3.org/2000/svg" xmlns:xlink="http://www.w3.org/1999/xlink" viewBox="0 0 1080 1080"><defs><style>.cls-1,.cls-2,.cls-5{stroke:#91d0d0;stroke-miterlimit:10;}.cls-1,.cls-3{fill:url(#Gradiente_sem_nome_29);}.cls-2,.cls-6{fill:url(#Gradiente_sem_nome_151);}.cls-4{clip-path:url(#clip-path);}.cls-5{fill:none;}.cls-7{clip-path:url(#clip-path-2);}</style><linearGradient id="Gradiente_sem_nome_29" x1="141.75" y1="522.58" x2="501.96" y2="522.58" gradientUnits="userSpaceOnUse"><stop offset="0.07" stop-color="#009699"/><stop offset="0.29" stop-color="#20a4ac"/><stop offset="0.6" stop-color="#43b4c1"/><stop offset="0.84" stop-color="#59bece"/><stop offset="1" stop-color="#61c2d3"/></linearGradient><linearGradient id="Gradiente_sem_nome_151" x1="581.31" y1="522.59" x2="943.8" y2="522.59" gradientUnits="userSpaceOnUse"><stop offset="0.06" stop-color="#8eb7b8"/><stop offset="1" stop-color="#008ea2"/></linearGradient><clipPath id="clip-path"><path class="cls-1" d="M501.57,771.6V507.79H399.86a21.49,21.49,0,0,1-21.49-21.49V446.82a21.49,21.49,0,0,1,21.49-21.49H501.57c-.08-10.83-.13-26.93,0-46.54.23-34.18.75-33.54,0-37-9.28-43.35-71.25-63.28-76.65-64.95a139.47,139.47,0,0,0-49.86-5.76H183.58a42,42,0,0,0-41.83,41.83V732.57a42,42,0,0,0,41.83,41.83H501.77C501.7,773.47,501.64,772.54,501.57,771.6Z"/></clipPath><clipPath id="clip-path-2"><path class="cls-2" d="M902,271.05H710.49a140.69,140.69,0,0,0-49.86,5.76c-2.91.89-70.54,22.49-79.08,68.2-.45,2.37-.15,1.69,0,34.17.09,19.58.05,35.58,0,46.15H685.69a21.49,21.49,0,0,1,21.49,21.49V486.3a21.49,21.49,0,0,1-21.49,21.49H581.55V771.6a21.58,21.58,0,0,1-.21,2.8H902a42,42,0,0,0,41.83-41.83V312.88A42,42,0,0,0,902,271.05Z"/></clipPath><image id="image" width="595" height="837" xlink:href="../../../dowloadsToJob/fundo.png"/></defs><title>LOGOjeff</title><g id="com_textura" data-name="com textura"><path class="cls-3" d="M501.57,771.6V507.79H399.86a21.49,21.49,0,0,1-21.49-21.49V446.82a21.49,21.49,0,0,1,21.49-21.49H501.57c-.08-10.83-.13-26.93,0-46.54.23-34.18.75-33.54,0-37-9.28-43.35-71.25-63.28-76.65-64.95a139.47,139.47,0,0,0-49.86-5.76H183.58a42,42,0,0,0-41.83,41.83V732.57a42,42,0,0,0,41.83,41.83H501.77C501.7,773.47,501.64,772.54,501.57,771.6Z"/><g class="cls-4"><use transform="translate(123.35 91.66) scale(1.48)" xlink:href="#image"/></g><path class="cls-5" d="M501.57,771.6V507.79H399.86a21.49,21.49,0,0,1-21.49-21.49V446.82a21.49,21.49,0,0,1,21.49-21.49H501.57c-.08-10.83-.13-26.93,0-46.54.23-34.18.75-33.54,0-37-9.28-43.35-71.25-63.28-76.65-64.95a139.47,139.47,0,0,0-49.86-5.76H183.58a42,42,0,0,0-41.83,41.83V732.57a42,42,0,0,0,41.83,41.83H501.77C501.7,773.47,501.64,772.54,501.57,771.6Z"/><path class="cls-6" d="M902,271.05H710.49a140.69,140.69,0,0,0-49.86,5.76c-2.91.89-70.54,22.49-79.08,68.2-.45,2.37-.15,1.69,0,34.17.09,19.58.05,35.58,0,46.15H685.69a21.49,21.49,0,0,1,21.49,21.49V486.3a21.49,21.49,0,0,1-21.49,21.49H581.55V771.6a21.58,21.58,0,0,1-.21,2.8H902a42,42,0,0,0,41.83-41.83V312.88A42,42,0,0,0,902,271.05Z"/><g class="cls-7"><use transform="translate(123.35 91.66) scale(1.48)" xlink:href="#image"/></g><path class="cls-5" d="M902,271.05H710.49a140.69,140.69,0,0,0-49.86,5.76c-2.91.89-70.54,22.49-79.08,68.2-.45,2.37-.15,1.69,0,34.17.09,19.58.05,35.58,0,46.15H685.69a21.49,21.49,0,0,1,21.49,21.49V486.3a21.49,21.49,0,0,1-21.49,21.49H581.55V771.6a21.58,21.58,0,0,1-.21,2.8H902a42,42,0,0,0,41.83-41.83V312.88A42,42,0,0,0,902,271.05Z"/></g></svg>