<svg xmlns="http://www.w3.org/2000/svg" xmlns:xlink="http://www.w3.org/1999/xlink" viewBox="0 0 1117.42 1117.42"><defs><style>.cls-1{fill:url(#Gradiente_sem_nome_6);}.cls-2{fill:url(#Gradiente_sem_nome_6-2);}</style><linearGradient id="Gradiente_sem_nome_6" x1="70.32" y1="508.33" x2="509" y2="508.33" gradientUnits="userSpaceOnUse"><stop offset="0.07" stop-color="#00aa9e"/><stop offset="0.29" stop-color="#20b2af"/><stop offset="0.6" stop-color="#43bbc3"/><stop offset="0.84" stop-color="#59c0cf"/><stop offset="1" stop-color="#61c2d3"/></linearGradient><linearGradient id="Gradiente_sem_nome_6-2" x1="605.65" y1="508.34" x2="1047.1" y2="508.34" xlink:href="#Gradiente_sem_nome_6"/></defs><title>LOGOjeff</title><g id="semTextura"><path class="cls-1" d="M508.53,811.59V490.32H384.67a26.17,26.17,0,0,1-26.17-26.17V416.06a26.17,26.17,0,0,1,26.17-26.17H508.53c-.1-13.57-.18-33.71,0-58.23.29-40.12.89-39.37,0-43.54-11.32-52.83-87.11-77.18-93.35-79.1a169.76,169.76,0,0,0-60.72-7H121.27A51.1,51.1,0,0,0,70.32,253V764.06a51.09,51.09,0,0,0,51,50.94H508.78A25.58,25.58,0,0,1,508.53,811.59Z"/><path class="cls-2" d="M996.15,202H763a171.45,171.45,0,0,0-60.72,7c-34.3,10.49-88.07,39.1-96.31,83-.53,2.83-.18,2,0,40,.11,24.52.06,44.55,0,57.81H732.75a26.17,26.17,0,0,1,26.17,26.17v48.09a26.17,26.17,0,0,1-26.17,26.17H605.93V811.59a25.58,25.58,0,0,1-.25,3.41H996.15a51.09,51.09,0,0,0,50.95-50.94V253A51.09,51.09,0,0,0,996.15,202Z"/></g></svg>