<svg xmlns="http://www.w3.org/2000/svg" viewBox="0 0 1117.42 1117.42"><defs><style>.cls-1{fill:#fff;}</style></defs><title>LOGOjeff</title><g id="black"><path class="cls-1" d="M519.75,892.72V551.82H388.32a27.77,27.77,0,0,1-27.77-27.77V473a27.77,27.77,0,0,1,27.77-27.77H519.75c-.09-13.36-.15-33.27,0-57.53.29-46.78,1-45.85,0-50.46-12.1-56-92.1-81.78-99.05-83.93a179.57,179.57,0,0,0-64.44-7.45H108.82a54.21,54.21,0,0,0-54,54.06V842.29a54.21,54.21,0,0,0,54,54.05Z"/><path class="cls-1" d="M1037.17,245.88H789.73a181.5,181.5,0,0,0-64.44,7.45c-3.76,1.15-91,29.07-102.19,88.13-.6,3.16-.18,2.17,0,47.17.09,24,0,43.69,0,56.62H757.68A27.77,27.77,0,0,1,785.44,473v51a27.77,27.77,0,0,1-27.76,27.77H623.1v340.9a28.82,28.82,0,0,1-.26,3.62h414.33a54.21,54.21,0,0,0,54.06-54.05V299.94A54.22,54.22,0,0,0,1037.17,245.88Z"/></g></svg>